Coordinates
version=1
nRows=21
nColumns=34
inDegrees=no

Units are S.I. units (second, meters, Newtons, ...)
If the header above contains a line with 'inDegrees', this indicates whether rotational values are in degrees (yes) or radians (no).

endheader
time	pelvis_tilt	pelvis_list	pelvis_rotation	pelvis_tx	pelvis_ty	pelvis_tz	hip_flexion_r	hip_adduction_r	hip_rotation_r	knee_angle_r	ankle_angle_r	subtalar_angle_r	mtp_angle_r	hip_flexion_l	hip_adduction_l	hip_rotation_l	knee_angle_l	ankle_angle_l	subtalar_angle_l	mtp_angle_l	lumbar_extension	lumbar_bending	lumbar_rotation	arm_flex_r	arm_add_r	arm_rot_r	elbow_flex_r	pro_sup_r	arm_flex_l	arm_add_l	arm_rot_l	elbow_flex_l	pro_sup_l
0	0.162231	0.0470591	0.104514	-0.183965	0.886268	-0.247155	0.277782	-0.0703981	-0.115511	0.0836607	0.00253187	-0.129223	-0.0980251	-0.51385	-0.072087	-0.190511	0.319466	0.188861	0.361427	-0.0980662	-0.50758	-0.0915329	-0.142314	0.180211	-0.343716	0.0107959	0.607312	1.03022	0.312092	-0.177135	0.284037	0.563633	1.11018
0.01	0.168209	0.0290849	0.0978164	-0.169203	0.885288	-0.245426	0.28868	-0.0472643	-0.112162	0.1343	-0.0270503	-0.16928	-0.0980221	-0.526687	-0.0919078	-0.202019	0.340896	0.162452	0.347796	-0.0980629	-0.51095	-0.0655456	-0.123445	0.191911	-0.349556	0.0135039	0.603064	1.02947	0.300782	-0.171698	0.280788	0.554962	1.10899
0.02	0.173701	0.0109506	0.0912339	-0.154495	0.884569	-0.243699	0.298687	-0.0248619	-0.111576	0.184282	-0.0477324	-0.201385	-0.0980191	-0.535261	-0.111924	-0.211579	0.366729	0.129672	0.327385	-0.0980597	-0.513613	-0.0398465	-0.10503	0.204421	-0.353973	0.0172878	0.595935	1.02823	0.289653	-0.166156	0.278959	0.544026	1.10677
0.03	0.178643	-0.00728505	0.0848214	-0.139857	0.884114	-0.241976	0.307755	-0.00325792	-0.113724	0.233386	-0.0595777	-0.225487	-0.0980161	-0.539453	-0.132095	-0.219091	0.39698	0.0906277	0.300214	-0.0980565	-0.515535	-0.0144749	-0.087139	0.217732	-0.356948	0.0221154	0.585948	1.0265	0.27874	-0.160518	0.278558	0.530837	1.10355
0.04	0.182866	-0.0254598	0.0787359	-0.125322	0.883923	-0.240271	0.315782	0.0173698	-0.118504	0.281011	-0.0628529	-0.241551	-0.0980131	-0.538901	-0.152312	-0.224278	0.431706	0.0457338	0.266414	-0.0980533	-0.5166	0.0104649	-0.06996	0.231802	-0.358435	0.0278762	0.573202	1.02432	0.268138	-0.154814	0.279601	0.515449	1.09939
0.05	0.186076	-0.0432952	0.0732438	-0.110944	0.883986	-0.238607	0.322643	0.0367362	-0.125698	0.326167	-0.058179	-0.249734	-0.0980101	-0.532982	-0.172385	-0.226695	0.470995	-0.00405675	0.22641	-0.0980501	-0.516588	0.0347936	-0.0538082	0.24653	-0.358376	0.0343438	0.55793	1.02175	0.258013	-0.149097	0.282101	0.497988	1.09446
0.06	0.187903	-0.0604174	0.0686799	-0.0967885	0.884278	-0.237011	0.328238	0.0544993	-0.134951	0.367627	-0.0466223	-0.250568	-0.0980071	-0.520911	-0.19204	-0.225806	0.514894	-0.0570768	0.181133	-0.0980469	-0.515193	0.0582653	-0.0390719	0.261731	-0.356718	0.0411613	0.540545	1.01891	0.248573	-0.143441	0.286045	0.478689	1.089
0.07	0.187999	-0.0764071	0.0653777	-0.0829177	0.884764	-0.235516	0.332489	0.070341	-0.145764	0.404145	-0.0296728	-0.24507	-0.0980041	-0.501973	-0.210919	-0.221095	0.563284	-0.110907	0.132183	-0.0980436	-0.512104	0.0805996	-0.0261248	0.277128	-0.353454	0.0478618	0.521651	1.016	0.240035	-0.137938	0.29137	0.457914	1.08342
0.08	0.186168	-0.0908842	0.0636076	-0.06938	0.885411	-0.234153	0.335272	0.0840518	-0.157538	0.434688	-0.00910342	-0.234691	-0.0980011	-0.475831	-0.228593	-0.212181	0.615743	-0.162532	0.0818298	-0.0980404	-0.507136	0.101522	-0.0152285	0.292362	-0.348649	0.0539245	0.502019	1.01324	0.232575	-0.132685	0.297953	0.436154	1.07817
0.09	0.182499	-0.103578	0.0635256	-0.0561965	0.886194	-0.232938	0.336338	0.0955907	-0.169658	0.458601	0.0132763	-0.22109	-0.0979981	-0.442764	-0.244576	-0.198887	0.671441	-0.208715	0.0327653	-0.0980372	-0.500346	0.120815	-0.00645397	0.307028	-0.342463	0.0588609	0.48252	1.01086	0.226292	-0.127772	0.305639	0.414008	1.07377
0.1	0.177361	-0.114346	0.0651398	-0.043362	0.887101	-0.231878	0.335334	0.105077	-0.181574	0.475677	0.0358708	-0.205836	-0.0979952	-0.403664	-0.258373	-0.181307	0.729204	-0.246456	-0.0122394	-0.098034	-0.492048	0.138333	0.000339735	0.32072	-0.335151	0.062296	0.464044	1.00908	0.2212	-0.123278	0.314275	0.392143	1.07063
0.11	0.171315	-0.123182	0.0683082	-0.0308522	0.888125	-0.230964	0.331878	0.112758	-0.192836	0.486121	0.0574551	-0.190209	-0.0979922	-0.359884	-0.269556	-0.159864	0.787656	-0.273453	-0.0506856	-0.0980308	-0.482751	0.154008	0.00548556	0.333086	-0.327031	0.0640246	0.447407	1.00805	0.217234	-0.119277	0.323733	0.371259	1.06902
0.12	0.164992	-0.130196	0.0727552	-0.0186437	0.889296	-0.230177	0.325625	0.118973	-0.203091	0.490456	0.0772277	-0.175117	-0.0979892	-0.313016	-0.277836	-0.135319	0.845371	-0.288463	-0.0806635	-0.0980275	-0.473071	0.167831	0.0094606	0.343866	-0.318454	0.0640355	0.433282	1.00783	0.214263	-0.115832	0.333925	0.352044	1.06898
0.13	0.158971	-0.135582	0.0781018	-0.00670829	0.890647	-0.229492	0.316338	0.124105	-0.212053	0.489394	0.0947828	-0.161091	-0.0979862	-0.264682	-0.283107	-0.108721	0.901004	-0.291483	-0.101089	-0.0980243	-0.46363	0.179838	0.0128238	0.35291	-0.309754	0.062502	0.422149	1.00838	0.212108	-0.112998	0.344775	0.335125	1.07038
0.14	0.153714	-0.139567	0.0838959	0.00498647	0.892203	-0.228882	0.303934	0.128537	-0.219478	0.483732	0.110034	-0.148351	-0.0979832	-0.21635	-0.285455	-0.0813076	0.953379	-0.283704	-0.111818	-0.0980211	-0.454971	0.190094	0.0161503	0.360187	-0.301219	0.0597462	0.414277	1.0096	0.210554	-0.110823	0.356176	0.321042	1.07288
0.15	0.149521	-0.142375	0.0896496	0.0164744	0.893957	-0.22831	0.288498	0.132595	-0.225144	0.474271	0.123126	-0.136887	-0.0979802	-0.16922	-0.285118	-0.0543748	1.00155	-0.267253	-0.113618	-0.0980179	-0.447503	0.19866	0.0199696	0.365772	-0.29306	0.0561852	0.409738	1.01132	0.209372	-0.10934	0.367937	0.310217	1.07608
0.16	0.146514	-0.144195	0.0948806	0.0277816	0.895896	-0.227743	0.270288	0.136512	-0.228863	0.461776	0.134348	-0.126525	-0.0979772	-0.124163	-0.282438	-0.0291387	1.04481	-0.244778	-0.108006	-0.0980147	-0.441466	0.205585	0.0247196	0.369824	-0.285409	0.0522719	0.408442	1.01334	0.208331	-0.108562	0.379738	0.302939	1.07954
0.17	0.144654	-0.145172	0.0991537	0.0389325	0.897989	-0.22715	0.249711	0.140397	-0.230509	0.446969	0.144062	-0.116986	-0.0979742	-0.0817091	-0.277797	-0.00662066	1.08272	-0.218975	-0.0969866	-0.0980115	-0.436936	0.210894	0.0307171	0.372557	-0.278319	0.0484415	0.410177	1.01549	0.207216	-0.108481	0.391109	0.299363	1.08289
0.18	0.143778	-0.14541	0.102117	0.0499471	0.900197	-0.226506	0.227283	0.144239	-0.23006	0.430526	0.152656	-0.107922	-0.0979713	-0.0420882	-0.27158	0.0124343	1.11508	-0.192179	-0.0827397	-0.0980083	-0.433848	0.214602	0.0381456	0.374213	-0.271784	0.0450729	0.414656	1.01763	0.20584	-0.10906	0.401454	0.299508	1.0859
0.19	0.143652	-0.144976	0.103535	0.0608417	0.902469	-0.225796	0.203575	0.147932	-0.227635	0.413083	0.160499	-0.0989441	-0.0979683	-0.00528679	-0.264153	0.0275963	1.14189	-0.166073	-0.0673287	-0.098005	-0.432029	0.216738	0.0470556	0.375038	-0.26576	0.0424685	0.421545	1.01973	0.204052	-0.110235	0.410106	0.303262	1.08845
0.2	0.144022	-0.143931	0.103306	0.0716289	0.904755	-0.22501	0.179154	0.151316	-0.223509	0.395229	0.16792	-0.089651	-0.0979653	0.0288742	-0.255856	0.0387495	1.16331	-0.141596	-0.0524736	-0.0980018	-0.431246	0.217371	0.0573749	0.375264	-0.260181	0.0408527	0.430487	1.02185	0.201746	-0.111918	0.416412	0.310392	1.09057
